<?xml version="1.0" encoding="UTF-8"?><svg xmlns="http://www.w3.org/2000/svg" xmlns:xlink="http://www.w3.org/1999/xlink" viewBox="0 0 1080 1080"><defs><style>.i{fill:url(#e);}.j{fill:url(#d);}.k{fill:url(#g);}.l{fill:url(#f);}.m{fill:url(#h);}.n{fill:url(#c);}</style><radialGradient id="c" cx="108.98" cy="943.19" fx="108.98" fy="943.19" r="698" gradientTransform="matrix(1, 0, 0, 1, 0, 0)" gradientUnits="userSpaceOnUse"><stop offset=".2" stop-color="#00c0ff"/><stop offset=".68" stop-color="#4b5ccf"/><stop offset=".73" stop-color="#5153cb"/><stop offset=".9" stop-color="#643bbf"/><stop offset="1" stop-color="#6b32bb"/></radialGradient><radialGradient id="d" cx="538.08" cy="542.68" fx="538.08" fy="542.68" r="87.75" gradientTransform="matrix(1, 0, 0, 1, 0, 0)" gradientUnits="userSpaceOnUse"><stop offset="0" stop-color="#fff"/><stop offset=".2" stop-color="#00c0ff"/><stop offset=".68" stop-color="#4b5ccf"/><stop offset=".73" stop-color="#5153cb"/><stop offset=".9" stop-color="#643bbf"/><stop offset="1" stop-color="#6b32bb"/></radialGradient><radialGradient id="e" cx="573.9" cy="506.09" fx="573.9" fy="506.09" r="113.54" xlink:href="#d"/><radialGradient id="f" cx="831.38" cy="517.8" fx="831.38" fy="517.8" r="541.4" gradientTransform="translate(1394.96 -147.09) rotate(112.81) scale(1 .51)" gradientUnits="userSpaceOnUse"><stop offset="0" stop-color="#fff"/><stop offset=".2" stop-color="#00c0ff"/><stop offset=".31" stop-color="#13a7f2"/><stop offset=".58" stop-color="#4b5ccf"/><stop offset=".64" stop-color="#564cc7"/><stop offset=".73" stop-color="#623dc0"/><stop offset=".84" stop-color="#6834bc"/><stop offset="1" stop-color="#6b32bb"/></radialGradient><radialGradient id="g" cx="301.79" cy="329.21" fx="301.79" fy="329.21" r="496.59" gradientTransform="translate(13.54 555.15) rotate(-72.6) scale(1 .63)" gradientUnits="userSpaceOnUse"><stop offset="0" stop-color="#fff"/><stop offset=".2" stop-color="#00c0ff"/><stop offset=".8" stop-color="#4b5ccf"/><stop offset=".83" stop-color="#5153cb"/><stop offset=".94" stop-color="#643bbf"/><stop offset="1" stop-color="#6b32bb"/></radialGradient><radialGradient id="h" cx="812.2" cy="162.07" fx="812.2" fy="162.07" r="598.96" gradientTransform="matrix(1, 0, 0, 1, 0, 0)" gradientUnits="userSpaceOnUse"><stop offset=".2" stop-color="#00c0ff"/><stop offset=".52" stop-color="#4b5ccf"/><stop offset=".59" stop-color="#5153cb"/><stop offset=".85" stop-color="#643bbf"/><stop offset="1" stop-color="#6b32bb"/></radialGradient></defs><g id="a"/><g id="b"><g><path class="n" d="M188.16,915.36c-5.45,4.91-5.73,11.46-1.72,16.13,4.01,4.67,9.84,4.91,15.87,.73l3.47-2.66c77.86-51.76,176.16-28.18,203.58-20.05,2.27,.74,4.55,1.46,6.83,2.16,.36,.13,.57,.2,.57,.2l-.05-.04c37.59,11.49,77.41,17.73,118.51,17.73,219.92,0,404.14-175.65,404.14-385.57,0-24.95-2.61-49.44-7.57-73.21-10.49-50.26-12.97-101.89-5.17-152.63,2.48-16.1,4.83-29.1,6.25-36.64,.42-2.2,.36-4.48-.37-6.6-4.06-11.82-17.53-14.4-25.53-7.19l-49.95,45.01-107.66,97.01c-19.91,17.94-27.5,45.81-19.53,71.39,4.99,15.99,8.14,32.73,9.2,49.94,.26,4.28,.36,8.59,.4,12.93,.93,107.03-86.51,198.07-194.5,200.98-29.71,.8-61.11-4.16-86.83-16.62-24.74-11.98-54.37-7.17-74.8,11.23l-97.4,87.77h0s-.07,.06-.14,.13l-9.75,8.79h0c-18.66,16.83-59.56,53.69-85.68,77.15l-2.17,1.96Z"/><path class="j" d="M628.14,542.68c0,47.15-40.32,85.38-90.07,85.38-24.56,0-46.83-9.32-63.08-24.44-16.66-15.49-26.99-37.08-26.99-60.94,0-47.15,40.32-85.38,90.07-85.38s90.07,38.23,90.07,85.38Z"/><path class="i" d="M628.14,542.6c0,47.15-40.32,85.38-90.07,85.38-24.56,0-46.83-9.32-63.08-24.44-16.66-15.49-26.99-37.08-26.99-60.94,0-47.15,40.32-85.38,90.07-85.38s90.07,38.23,90.07,85.38Z"/><path class="l" d="M548.15,929.36c214.18-6.7,391.21-179.56,391.21-385.37,0-25.12-2.64-49.76-7.67-73.69-10.49-49.93-12.88-101.26-5.14-151.69,2.5-16.32,4.89-29.5,6.33-37.11,.42-2.2,.36-4.48-.37-6.6-4.06-11.82-17.53-14.4-25.53-7.19l-49.95,45.01-107.66,97.01c-19.91,17.94-27.5,45.81-19.53,71.39,4.99,15.99,8.14,32.73,9.2,49.94h0c2.24,17.87,3.39,36.23,3.39,55.02,0,151.55-74.72,274.77-194.28,343.27h0Z"/><path class="k" d="M604.26,152.42c-23.78-4.97-48.26-7.59-73.21-7.6-209.92-.09-385.65,184.06-385.74,403.98-.02,41.1,6.21,80.92,17.68,118.52l-.04-.05s.07,.21,.2,.57c.7,2.29,1.42,4.57,2.16,6.84,8.11,27.42,31.66,125.73-20.13,203.57l-1.93,3.52c-3.76,6.3-3.55,12.17,1.29,15.98,4.84,3.81,11.23,3.21,15.77-2.56,23.47-26.12,61.37-68.47,78.21-87.13h0l8.79-9.75c.07-.07,.13-.14,.13-.14l92.05-102.07c18.41-20.42,20.14-48.77,11.26-74.79-8.97-26.31-15.17-50.15-14.94-78.31,.25-190.94,119.13-336.81,296.8-384.76l1.87-.49c-10.11-1.44-20.19-3.22-30.21-5.31Z"/><path class="m" d="M634.48,157.73c40.6,5.78,81.79,6.15,122.42-.08,16.1-2.47,29.11-4.82,36.64-6.24,2.2-.42,4.48-.36,6.6,.37,11.81,4.07,14.39,17.54,7.18,25.54l-45.03,49.93-92.42,102.36c-20.88,25.44-45.19,28.29-70.77,20.31-15.98-4.99-32.72-8.16-49.93-9.22-4.28-.27-8.59-.36-12.93-.4-107.03-.97-197.49,91.23-200.44,199.21v3.9c.08-191.15,119.01-337.18,296.81-385.18l1.87-.49Z"/></g></g></svg>